<?xml version="1.0" encoding="utf-8"?>
<!-- Generator: Adobe Illustrator 22.1.0, SVG Export Plug-In . SVG Version: 6.00 Build 0)  -->
<svg version="1.1" id="Layer_1" xmlns="http://www.w3.org/2000/svg" xmlns:xlink="http://www.w3.org/1999/xlink" x="0px" y="0px"
	 viewBox="0 0 113 44.2" style="enable-background:new 0 0 113 44.2;" xml:space="preserve">
<style type="text/css">
	.st0{fill:#DB2905;}
</style>
<g>
	<g>
		<polygon class="st0" points="33,43.7 33,0.8 27.2,0.8 27.2,19.7 6.8,19.7 6.8,0.8 1,0.8 1,43.7 6.8,43.7 6.8,25 27.2,25 
			27.2,43.7 		"/>
		<polygon class="st0" points="69.9,6 69.9,0.8 44,0.8 44,43.7 69.9,43.7 69.9,38.4 49.8,38.4 49.7,31.2 67.9,31.2 68,26.4 
			49.8,26.4 49.8,18.5 67.9,18.5 67.9,13.9 49.8,13.9 49.8,6 		"/>
		<path class="st0" d="M86,20.8V5.7h10.3c2.6,0,4.7,0.7,6.2,2.1c1.6,1.4,2.4,3.3,2.4,5.7c0,2.2-0.7,3.7-2.4,5.2
			c-1.6,1.4-3.6,2.1-6.2,2.1H86z M101.5,24.9c2.9-0.7,5.3-2.1,6.9-4.2c1.7-2.2,2.5-4.4,2.5-7.3c0-1.8-0.3-3.4-0.9-5
			c-0.6-1.5-1.5-2.9-2.6-4c-1.1-1.1-2.5-2-4.1-2.7c-1.6-0.6-3.5-1-5.5-1L80.2,0.7v42.9l5.8,0v-18h8.3l0.2,0.3l9.2,17.7h6.5
			l-9.9-18.5L101.5,24.9z"/>
	</g>
</g>
</svg>
