<svg enable-background="new 0 0 512.2 26.1" viewBox="0 0 512.2 26.1" xmlns="http://www.w3.org/2000/svg"><g fill="#0073d1"><path d="m74.3 17.6c-.2 1.3-.6 2-1.2 2.7-.8.9-2.2 1.5-3.6 1.5s-2.7-.6-3.6-1.5c-1.2-1.3-1.4-2.6-1.4-7.5 0-4.8.2-6.2 1.4-7.5.8-.9 2.2-1.5 3.6-1.5s2.7.6 3.6 1.5c.6.7 1 1.4 1.2 2.6h3.7c-.2-1.9-.8-3.4-2.2-4.8-1.7-1.7-3.8-2.6-6.3-2.6-2.6 0-4.7.9-6.3 2.6-2.4 2.4-2.3 5-2.3 9.6s0 7.3 2.3 9.6c1.7 1.7 3.7 2.6 6.3 2.6s4.7-.9 6.3-2.6c1.4-1.4 1.9-2.9 2.2-4.8h-.1-3.6z"/><path d="m17.2 7.8c0-4.1-2.9-7-7.5-7h-9.2v24h3.6v-10.1h4.6l5.1 10.1h4.2l-5.5-10.6c2.6-.8 4.7-3 4.7-6.4m-13.1 3.8v-7.6h5.4c2.4 0 4.1 1.4 4.1 3.8s-1.6 3.7-4.1 3.7h-5.4z"/><path d="m45.4 3.1c-1.7-1.7-3.8-2.6-6.3-2.6-2.6 0-4.7.9-6.3 2.6-2.4 2.4-2.3 5-2.3 9.6s0 7.3 2.3 9.6c1.7 1.7 3.7 2.6 6.3 2.6s4.7-.9 6.3-2.6c2.4-2.4 2.3-5 2.3-9.6s0-7.2-2.3-9.6m-2.8 17.1c-.8.9-2.2 1.5-3.6 1.5s-2.7-.6-3.6-1.5c-1.2-1.3-1.4-2.6-1.4-7.5s.2-6.2 1.4-7.5c.8-.9 2.2-1.5 3.6-1.5s2.7.6 3.6 1.5c1.2 1.3 1.4 2.6 1.4 7.5s-.2 6.2-1.4 7.5"/><path d="m104.9.8-9.8 12v-12h-3.6v24h3.6v-7l4.1-4.9 6.7 11.9h4.3l-8.6-14.6 7.8-9.4z"/><path d="m193.9 13c-1-.9-2.3-1.4-4.5-1.8l-2.7-.4c-1.1-.2-2.1-.6-2.7-1.1-.6-.6-.9-1.3-.9-2.2 0-2.1 1.6-3.7 4.4-3.7 2 0 3.7.4 5.2 1.9l2.3-2.3c-2.1-1.9-4.3-2.7-7.5-2.7-5 0-8 2.9-8 7 0 2 .6 3.5 1.8 4.6 1 1 2.6 1.7 4.6 1.9l2.8.4c1.4.2 2 .4 2.6 1s.9 1.5.9 2.5c0 2.3-1.8 3.7-5 3.7-2.5 0-4.4-.5-6.1-2.3l-2.4 2.4c2.3 2.3 4.9 3.2 8.5 3.2 5 0 8.6-2.6 8.6-7 .1-2.2-.6-3.9-1.9-5.1"/><path d="m240.5 3.1c-1.7-1.7-3.8-2.6-6.3-2.6-2.6 0-4.7.9-6.3 2.6-2.4 2.4-2.3 5-2.3 9.6s0 7.3 2.3 9.6c1.7 1.7 3.7 2.6 6.3 2.6s4.7-.9 6.3-2.6c2.4-2.4 2.3-5 2.3-9.6s.1-7.2-2.3-9.6m-2.8 17.1c-.8.9-2.2 1.5-3.6 1.5s-2.7-.6-3.6-1.5c-1.2-1.3-1.4-2.6-1.4-7.5s.2-6.2 1.4-7.5c.8-.9 2.2-1.5 3.6-1.5s2.7.6 3.6 1.5c1.2 1.3 1.4 2.6 1.4 7.5s-.2 6.2-1.4 7.5"/><path d="m256.8.8v10.4 3.3 10.4h3.7v-10.2-.2h10.5v-3.3h-10.5v-7.1h11.7v-3.3z"/><path d="m353.1.8-4.2 17.2-4.9-17.2h-2.9l-4.8 17.2-4.2-17.2h-3.8l6.2 24.1h3.2l4.9-16.9 4.9 16.9h3.1l6.3-24.1z"/><path d="m412.1 13c-1-.9-2.3-1.4-4.5-1.8l-2.7-.4c-1.1-.2-2.1-.6-2.7-1.1-.6-.6-.9-1.3-.9-2.2 0-2.1 1.6-3.7 4.4-3.7 2 0 3.7.4 5.2 1.9l2.3-2.3c-2.1-1.9-4.3-2.7-7.5-2.7-5 0-8 2.9-8 7 0 2 .6 3.5 1.8 4.6 1 1 2.6 1.7 4.6 1.9l2.8.4c1.4.2 2 .4 2.6 1s.9 1.5.9 2.5c0 2.3-1.8 3.7-5 3.7-2.5 0-4.4-.5-6.1-2.3l-2.4 2.4c2.3 2.3 4.9 3.2 8.5 3.2 5 0 8.6-2.6 8.6-7 .1-2.2-.5-3.9-1.9-5.1"/><path d="m442 3.2c-1.7-1.7-3.8-2.6-6.3-2.6-2.6 0-4.7.9-6.3 2.6-2.4 2.4-2.3 5-2.3 9.6s0 7.3 2.3 9.6c1.7 1.7 3.7 2.6 6.3 2.6s4.7-.9 6.3-2.6c2.4-2.4 2.3-5 2.3-9.6s0-7.2-2.3-9.6m-2.8 17.1c-.8.9-2.2 1.5-3.6 1.5s-2.7-.6-3.6-1.5c-1.2-1.3-1.4-2.6-1.4-7.5s.2-6.2 1.4-7.5c.8-.9 2.2-1.5 3.6-1.5s2.7.6 3.6 1.5c1.2 1.3 1.4 2.6 1.4 7.5s-.2 6.2-1.4 7.5"/><path d="m475.8.8-6.8 15-7-15h-3.7v24.1h3.7v-16.1l5.6 11.7h2.7l5.5-11.7v16.1h3.7v-24.1z"/><path d="m160.8.9h-3.5-6.7v3.2h6.7v20.8h3.5v-20.8h6.7v-3.2z"/><path d="m494.3.8v.1 24h3.3 12.1v-3.3h-11.7v-7.1h10.5v-3.3h-10.5v-.1-7h11.7v-3.3z"/><path d="m369.6.8v.1 24h3.3 12v-3.3h-11.7v-7.1h10.6v-3.3h-10.6v-.1-7h11.7v-3.3z"/><path d="m316 3.1c-1.7-1.7-3.8-2.6-6.3-2.6-2.6 0-4.7.9-6.3 2.6-2.4 2.4-2.3 5-2.3 9.6v12.1h3.6v-7.1h10v7.1h3.6v-12c0-4.6 0-7.3-2.3-9.7m-1.4 11.4h-10v-1.7c0-4.8.2-6.2 1.4-7.5.8-.9 2.2-1.5 3.6-1.5s2.7.6 3.6 1.5c1.2 1.3 1.4 2.6 1.4 7.5z"/><path d="m122.8.8v.1 24h3.2 12.1v-3.3h-11.7v-7.1h10.6v-3.3h-10.6v-.1-7h11.7v-3.3z"/></g></svg>