<svg enable-background="new 0 0 719.6 116.6" viewBox="0 0 719.6 116.6" xmlns="http://www.w3.org/2000/svg"><g fill="#3f363a"><path d="m334.1 0c-33.3 0-60.3 26.1-60.3 58.3s27 58.3 60.3 58.3 60.3-26.1 60.3-58.3c-.1-32.2-27-58.3-60.3-58.3zm0 96.5c-20.6 0-37.3-17.1-37.3-38.2s16.7-38.2 37.3-38.2 37.3 17.1 37.3 38.2c-.1 21.1-16.7 38.2-37.3 38.2z"/><path d="m88.1 59.8c-10.5-7.7-20.7-9.4-31.8-12.1-9-2.2-15.3-3.1-20.9-5.6-4.9-2.2-8.8-5.7-8.1-10.8 1-7.6 9.8-11.2 22.7-11.2 18.3 0 30.9 9 32 10.7l12.7-15.3s-2.5-2.6-6.5-5c-7.6-4.7-21.7-10.5-38.2-10.5-24.8 0-43.5 12.9-44.9 30.5-1.3 16.5 9.1 25.2 19.6 29.3 11 4.3 36.6 8.3 45.8 12.9 8.5 4.3 7.6 15.1 0 19.9-3.1 1.9-8 4.3-20.4 3.8-18.4-.7-35.8-14.2-37.3-15.9l-12.8 15.3c8.5 9.7 28.9 20.2 50.3 20.7 16.1.4 29-3.2 37.8-10.7 15.2-12.8 13-36.5 0-46z"/><path d="m719.6 93.2h-73.1v-26.6h41.6v-21h-41.6v-22.7h71.1v-21h-93.3v112.3h95.3z"/><path d="m216 2.5v69c-6.3-6.4-15.9-14.7-26-23.6-10.2-8.9-20.8-18.1-28.5-25.5-7.6-7.3-9.5-14.1-10.4-19.8h-19.1v111.9h22.3v-69.9c6.4 6.2 14.2 12.9 21.7 19.5 10.7 9.3 20.8 18.1 27 24.2 9.2 9.1 15 15.3 16.3 26.2h19.1v-112z"/><path d="m504.2 49.1 25.2 66h21.4l41-113.2h-24l-28.2 82.3-24.7-66.3h-21.4l-24.7 66.3-28.2-82.3h-24l41 113.2h21.4z"/></g></svg>