<svg width="218" height="18" viewBox="0 0 218 18" xmlns="http://www.w3.org/2000/svg"><g fill="none" fill-rule="evenodd"><path d="M170.252 2.314c-1.001-.91-2.344-1.365-3.987-1.365h-6.512v15.983h2.685v-6.013h3.827c1.703 0 3.066-.455 4.027-1.345.962-.89 1.463-2.117 1.463-3.62 0-1.543-.5-2.73-1.503-3.64zm-2.083 5.5c-.521.454-1.163.691-1.964.691h-3.787V3.363h3.787c.761 0 1.403.197 1.923.613.541.415.802 1.088.802 1.978.02.771-.24 1.384-.761 1.86z"/><path d="M178.928309 11.5714286L182.715257 11.5714286 180.831801 6.17142857z"/><path d="M167.808 4.391c-.42-.336-.962-.494-1.583-.494h-3.246v4.055h3.246c.661 0 1.162-.178 1.583-.554.4-.376.601-.85.601-1.464 0-.712-.2-1.207-.601-1.543z"/><path d="M114.169485 16.9318681L116.854412 16.9318681 116.854412 3.36263736 121.743382 3.36263736 121.743382 0.949450549 109.260478 0.949450549 109.260478 3.36263736 114.169485 3.36263736z"/><path d="M136.891176 14.5186813L129.517647 14.5186813 129.517647 9.90989011 136.229963 9.90989011 136.229963 7.61538462 129.517647 7.61538462 129.517647 3.36263736 136.891176 3.36263736 136.891176 0.949450549 126.832721 0.949450549 126.832721 16.9318681 136.891176 16.9318681z"/><path d="M149.655 7.734c-1.944-.653-3.126-1.108-3.607-1.385-.541-.296-.822-.771-.822-1.364 0-.614.24-1.088.722-1.464.46-.356 1.142-.534 2.024-.534 1.602 0 2.704.771 3.266 2.294l2.624-.652c-.3-1.286-.961-2.295-1.963-2.948-1.082-.732-2.405-1.088-3.927-1.088-1.664 0-2.986.436-3.948 1.306-.962.87-1.422 1.899-1.422 3.125 0 1.049.34 1.919 1.022 2.63.68.733 1.883 1.366 3.566 1.88 1.884.574 3.086 1.048 3.627 1.424.6.416.901.99.901 1.74 0 .733-.32 1.287-.941 1.662-.581.356-1.363.515-2.325.515-1.142 0-2.003-.317-2.524-.97-.461-.573-.802-1.443-1.022-2.65l-2.865.613c.26 1.76.921 3.086 1.983 3.996 1.122.93 2.605 1.404 4.428 1.404 1.784 0 3.226-.455 4.288-1.365 1.062-.91 1.583-2.037 1.583-3.441 0-1.167-.32-2.097-.962-2.79-.66-.652-1.903-1.325-3.706-1.938zM179.71.95l-5.851 15.983h2.625l.962-2.71h6.772l.962 2.71h2.745L182.095.949h-2.385zm-1.563 11.176l2.464-6.982h.441l2.445 6.982h-5.35z"/><path d="M18.4338235 0.949450549L15.7689338 0.949450549 15.7689338 16.9318681 18.4338235 16.9318681 18.4338235 9.79120879 24.7253676 9.79120879 24.7253676 16.9318681 27.4102941 16.9318681 27.4102941 0.949450549 24.7253676 0.949450549 24.7253676 7.61538462 18.4338235 7.61538462z"/><path d="M198.544 14.875c-1.242 0-2.264-.534-3.045-1.563-.782-1.009-1.162-2.571-1.162-4.628 0-1.78.4-3.165 1.202-4.154.821-1.01 1.823-1.523 3.005-1.523 1.062 0 1.884.356 2.465 1.048.5.613.841 1.404 1.022 2.334l2.665-.415c-.22-1.603-.882-2.888-1.964-3.858-1.142-1.008-2.565-1.523-4.208-1.523-1.883 0-3.546.712-4.909 2.137-1.362 1.424-2.064 3.422-2.064 5.954 0 2.887.662 5.083 1.944 6.487 1.282 1.405 2.986 2.117 5.05 2.117 1.763 0 3.205-.534 4.307-1.583 1.042-1.008 1.723-2.393 2.004-4.134l-2.805-.613c-.36 2.611-1.543 3.917-3.507 3.917z"/><path d="M44.2211397 14.5186813L36.8476103 14.5186813 36.8476103 9.90989011 43.5599265 9.90989011 43.5599265 7.61538462 36.8476103 7.61538462 36.8476103 3.36263736 44.2211397 3.36263736 44.2211397 0.949450549 34.1827206 0.949450549 34.1827206 16.9318681 44.2211397 16.9318681z"/><path fill="#000" fill-rule="nonzero" d="M0.0200367647 0.949450549L10.6795956 0.949450549 10.6795956 3.36263736 5.77058824 3.36263736 5.77058824 16.9318681 3.08566176 16.9318681 3.08566176 3.36263736 0.0200367647 3.36263736 0.0200367647 3.8967033 2.54466912 3.8967033 2.54466912 17.4857143 6.31158088 17.4857143 6.31158088 3.8967033 11.2205882 3.8967033 11.2205882 0.415384615 0.0200367647 0.415384615z"/><path d="M24.184.415v6.666h-5.19V.415h-3.766v17.07h3.767v-7.16h5.19v7.16h3.766V.416h-3.767zm3.226 16.517h-2.685v-7.16h-6.291v7.16h-2.685V.949h2.685v6.666h6.291V.95h2.685v15.983zm6.212.554h11.14v-3.501H37.39v-3.541h6.692V7.062h-6.692V3.897h7.373V.396h-11.14v17.09zm.56-16.537h10.04v2.414h-7.374v4.252h6.692V9.91h-6.692v4.628h7.373v2.414H34.183V.949z" fill="#000" fill-rule="nonzero"/><g transform="translate(56.904 .396)"><path d="M17.6724265 0.553846154L15.5084559 11.789011 15.0075368 11.789011 11.1604779 0.553846154 9.93823529 0.553846154 6.09117647 11.789011 5.59025735 11.789011 3.42628676 0.553846154 0.721323529 0.553846154 3.86709559 16.5362637 6.79246324 16.5362637 10.2588235 6.27032967 10.7998162 6.27032967 14.2461397 16.5362637 17.1715074 16.5362637 20.3172794 0.553846154z"/><path d="M17.212.02l-2.024 10.582L11.56.02H9.537L5.912 10.602 3.887.02H.06l3.366 17.07h3.767L10.54 7.2l3.326 9.89h3.767L21 .02h-3.787zm-.04 16.516h-2.926L10.8 6.27h-.541L6.792 16.536H3.867L.721.554h2.725L5.59 11.789h.501L9.938.554h1.243l3.847 11.235h.5L17.672.554h2.645l-3.145 15.982z" fill="#000" fill-rule="nonzero"/></g><g transform="translate(82.15 .396)"><path d="M9.65772059 7.21978022L3.36617647 7.21978022 3.36617647 0.553846154 0.68125 0.553846154 0.68125 16.5362637 3.36617647 16.5362637 3.36617647 9.3956044 9.65772059 9.3956044 9.65772059 16.5362637 12.3426471 16.5362637 12.3426471 0.553846154 9.65772059 0.553846154z"/><path d="M9.117.02v6.666h-5.19V.02H.16v17.07h3.767V9.93h5.19v7.16h3.767V.02H9.117zm3.226 16.516H9.658v-7.16H3.366v7.16H.681V.554h2.685V7.22h6.292V.554h2.685v15.982z" fill="#000" fill-rule="nonzero"/></g><g transform="translate(100.785 .396)"><path d="M0.581 0.554H3.266V16.535999999999998H0.581z"/><path d="M.04.02v17.07h3.767V.02H.04zm3.226 16.516H.581V.554h2.685v15.982z" fill="#000" fill-rule="nonzero"/></g><path d="M108.72 3.897h4.908v13.569h3.767V3.896h4.91v-3.5h-13.586v3.5zm.54-2.948h12.483v2.414h-4.909v13.569h-2.685V3.362h-4.909V.95h.02zm17.032 16.537h11.14v-3.501h-7.373v-3.541h6.692V7.062h-6.692V3.897h7.373V.396h-11.14v17.09zm.54-16.537h10.04v2.414h-7.374v4.252h6.692V9.91h-6.692v4.628h7.373v2.414h-10.038V.949zm23.003 6.27c-1.884-.632-3.066-1.087-3.527-1.344-.38-.218-.56-.495-.56-.89 0-.436.16-.772.5-1.049.361-.277.922-.415 1.683-.415 1.443 0 2.365.692 2.826 2.156l.08.237 3.626-.91-.04-.257c-.3-1.562-1.062-2.75-2.264-3.54C150.977.415 149.554.02 147.931.02c-1.803 0-3.246.494-4.307 1.444-1.062.969-1.603 2.156-1.603 3.52 0 1.187.4 2.196 1.162 3.007.761.791 2.043 1.484 3.807 2.018 1.803.554 2.985 1.009 3.486 1.345.44.297.661.732.661 1.305 0 .534-.22.93-.68 1.207-.502.297-1.183.455-2.045.455-.981 0-1.683-.257-2.104-.772-.44-.534-.76-1.424-.961-2.67l-.04-.277-3.928.85.02.238c.24 2.018.982 3.56 2.204 4.57 1.223 1.028 2.826 1.542 4.79 1.542 1.923 0 3.486-.514 4.648-1.503 1.182-1.009 1.763-2.295 1.763-3.837 0-1.306-.36-2.374-1.102-3.146-.681-.751-1.964-1.443-3.867-2.096zm2.885 8.704c-1.062.91-2.504 1.365-4.288 1.365-1.823 0-3.306-.475-4.428-1.404-1.062-.89-1.723-2.236-1.983-3.996l2.865-.613c.22 1.206.56 2.077 1.022 2.65.52.633 1.362.97 2.524.97.962 0 1.744-.179 2.325-.515.62-.376.941-.93.941-1.661 0-.752-.3-1.345-.901-1.741-.541-.376-1.723-.83-3.627-1.424-1.683-.514-2.885-1.147-3.567-1.88-.68-.711-1.021-1.582-1.021-2.63 0-1.226.46-2.235 1.422-3.125.962-.87 2.284-1.306 3.947-1.306 1.523 0 2.846.356 3.928 1.088 1.002.673 1.663 1.662 1.963 2.947l-2.625.653c-.56-1.523-1.663-2.294-3.266-2.294-.881 0-1.562.178-2.023.534-.481.375-.722.85-.722 1.463 0 .574.28 1.049.822 1.365.48.277 1.663.712 3.607 1.385 1.803.613 3.045 1.266 3.686 1.978.642.672.962 1.622.962 2.789.02 1.365-.5 2.492-1.563 3.402zM168.15 3.976c-.521-.416-1.163-.613-1.924-.613h-3.787v5.142h3.787c.781 0 1.443-.237 1.964-.692.52-.475.781-1.088.781-1.86-.02-.89-.28-1.562-.821-1.977zm-.341 3.442c-.42.375-.942.553-1.583.553h-3.246V3.916h3.246c.641 0 1.162.159 1.583.495.4.316.601.83.601 1.543 0 .613-.2 1.088-.601 1.464z" fill="#000" fill-rule="nonzero"/><path d="M170.613 1.919c-1.122-.99-2.585-1.504-4.348-1.504h-7.073v17.07h3.767v-6.012h3.286c1.843 0 3.326-.495 4.408-1.484 1.082-.989 1.623-2.354 1.623-4.015.02-1.701-.54-3.066-1.663-4.055zm-.32 7.655c-.962.89-2.325 1.345-4.028 1.345h-3.827v6.013h-2.685V.949h6.512c1.623 0 2.966.455 3.987 1.365 1.022.91 1.503 2.097 1.503 3.64 0 1.523-.48 2.73-1.463 3.62zm10.318-4.431l-2.464 6.982h5.33l-2.425-6.982h-.44zm-1.683 6.428l1.904-5.42 1.883 5.42h-3.787z" fill="#000" fill-rule="nonzero"/><path d="M179.329.415l-6.251 17.07h3.787l.961-2.71h5.991l.962 2.71h3.907L182.455.416h-3.126zm5.83 16.517l-.961-2.71h-6.772l-.962 2.71h-2.625l5.85-15.983h2.365l5.83 15.983h-2.724zm16.39-6.31c-.28 2.512-1.262 3.719-3.005 3.719-1.062 0-1.923-.436-2.625-1.345-.7-.91-1.061-2.374-1.061-4.312 0-1.642.36-2.928 1.082-3.818.72-.89 1.562-1.306 2.584-1.306.902 0 1.563.277 2.044.851.5.593.801 1.385.942 2.334l.04.277 3.727-.574-.02-.257c-.2-1.86-.942-3.362-2.184-4.45C201.83.633 200.287.079 198.504.079c-2.044 0-3.827.772-5.31 2.295-1.462 1.523-2.224 3.659-2.224 6.33 0 3.026.702 5.34 2.084 6.843 1.403 1.523 3.226 2.295 5.45 2.295 1.924 0 3.487-.574 4.689-1.721 1.182-1.147 1.923-2.71 2.204-4.688l.04-.257-3.887-.85v.296zm3.327.97c-.28 1.74-.962 3.124-2.004 4.133-1.082 1.049-2.544 1.583-4.308 1.583-2.063 0-3.767-.712-5.049-2.117-1.302-1.404-1.943-3.6-1.943-6.488 0-2.532.7-4.53 2.063-5.954 1.363-1.424 3.026-2.136 4.91-2.136 1.642 0 3.065.514 4.207 1.523 1.082.97 1.743 2.255 1.964 3.857l-2.665.416c-.16-.93-.521-1.721-1.022-2.334-.581-.693-1.403-1.049-2.465-1.049-1.182 0-2.204.515-3.005 1.523-.802.99-1.202 2.394-1.202 4.154 0 2.057.4 3.62 1.162 4.629.801 1.028 1.823 1.563 3.045 1.563 1.964 0 3.146-1.306 3.507-3.917l2.805.613z" fill="#000" fill-rule="nonzero"/><path fill="#000" fill-rule="nonzero" d="M213.271324 14.5186813L217.859743 14.5186813 217.859743 13.9846154 213.812316 13.9846154 213.812316 10.443956 217.859743 10.443956 217.859743 9.90989011 213.271324 9.90989011z"/><path fill="#000" fill-rule="nonzero" d="M210.045404 0.415384615L210.045404 17.4857143 217.859743 17.4857143 217.859743 16.9318681 210.586397 16.9318681 210.586397 0.949450549 217.859743 0.949450549 217.859743 0.415384615z"/><path fill="#000" fill-rule="nonzero" d="M213.271324 7.61538462L217.859743 7.61538462 217.859743 7.06153846 213.812316 7.06153846 213.812316 3.8967033 217.859743 3.8967033 217.859743 3.36263736 213.271324 3.36263736z"/></g></svg>