<svg width="13" height="14" viewBox="0 0 13 14" xmlns="http://www.w3.org/2000/svg" xmlns:xlink="http://www.w3.org/1999/xlink"><defs><path id="a" d="M0.000212961218 0.128839161L12.8778667 0.128839161 12.8778667 13.3635267 0.000212961218 13.3635267z"/></defs><path d="M5.12 9.949C2.67 9.946.69 7.909.683 5.392.688 2.874 2.669.838 5.117.832c2.448.005 4.43 2.041 4.436 4.559C9.55 7.907 7.567 9.944 5.12 9.949zM8.97 8.85a5.325 5.325 0 0 0 1.27-3.46C10.236 2.484 7.945.129 5.117.129 2.291.129 0 2.485 0 5.392c0 2.907 2.292 5.262 5.12 5.261 1.29 0 2.466-.495 3.366-1.305l3.908 4.016.484-.498L8.97 8.85z" fill="#231F20"/></svg>