<svg enable-background="new 0 0 360 360" viewBox="0 0 360 360" xmlns="http://www.w3.org/2000/svg"><path d="m90.8 90.8h178.4v178.4h-178.4z" fill="#db2905"/><g fill="#fff"><path d="m153.6 205.1v-50.3h-6.8v22.2h-23.9v-22.2h-6.8v50.3h6.8v-21.8h23.9v21.8z"/><path d="m196.8 161v-6.2h-30.2v50.3h30.2v-6.2h-23.4l-.2-8.4h21.3l.1-5.6h-21.2v-9.3h21.1v-5.4h-21.1v-9.2z"/><path d="m215.8 178.3v-17.7h12.1c3 0 5.5.8 7.3 2.4s2.8 3.9 2.8 6.6c0 2.6-.8 4.4-2.8 6.1-1.8 1.6-4.3 2.4-7.3 2.4zm18.1 4.9c3.4-.8 6.1-2.5 8.1-5 2-2.6 2.9-5.2 2.9-8.5 0-2.1-.3-4-1.1-5.8-.7-1.8-1.7-3.4-3-4.7s-2.9-2.4-4.8-3.2c-1.9-.7-4.1-1.1-6.4-1.1l-20.6-.1v50.3h6.8v-21.1h9.7l.2.4 10.8 20.8h7.7l-11.6-21.7z"/></g></svg>