<svg width="13" height="13" viewBox="0 0 13 13" xmlns="http://www.w3.org/2000/svg" xmlns:xlink="http://www.w3.org/1999/xlink"><defs><path id="a" d="M0 0L9 0 9 9 0 9z"/></defs><g transform="rotate(45 3.086 7.914)" fill="none" fill-rule="evenodd"><mask id="b" fill="#fff"><use xlink:href="#a"/></mask><path d="M8.49.215L1.392 0a.312.312 0 0 0-.316.296.32.32 0 0 0 .296.316l6.39.195L.09 8.48a.304.304 0 1 0 .43.43l7.674-7.674.195 6.39c.006.16.156.301.316.296A.31.31 0 0 0 9 7.607L8.785.511a.327.327 0 0 0-.296-.296" stroke="#000" stroke-width=".5" fill="#000" mask="url(#b)"/></g></svg>