<svg width="23" height="23" viewBox="0 0 23 23" xmlns="http://www.w3.org/2000/svg"><path d="M2.757 17.307l2.936 2.934-3.572.635.636-3.57zM15.294 3.882a.46.46 0 0 0 .083.115l3.624 3.621a.465.465 0 0 0 .115.084L6.818 19.992a.532.532 0 0 0-.083-.115L3.12 16.256c-.033-.033-.076-.052-.114-.073l12.287-12.3zM18.293 2A2.7 2.7 0 0 1 21 4.705a2.67 2.67 0 0 1-.791 1.904l-.417.416a.498.498 0 0 0-.083-.114l-3.624-3.622a.475.475 0 0 0-.114-.083l.416-.416a2.675 2.675 0 0 1 1.906-.791zm0-.999a3.67 3.67 0 0 0-2.614 1.082L2.132 15.632a.51.51 0 0 0-.135.27l-.99 5.505c-.028.16.03.332.146.447a.5.5 0 0 0 .354.146c.03 0 .054-.005.083-.01L7.1 21a.483.483 0 0 0 .26-.135l13.548-13.55a3.678 3.678 0 0 0 0-5.234A3.67 3.67 0 0 0 18.293 1z" stroke="#050505" stroke-width=".25" fill-rule="evenodd"/></svg>